<?xml version="1.0" encoding="UTF-8"?>
<!DOCTYPE svg PUBLIC "-//W3C//DTD SVG 1.1//EN" "http://www.w3.org/Graphics/SVG/1.1/DTD/svg11.dtd">
<svg version="1.2" width="257.77mm" height="282.22mm" viewBox="0 0 25777 28222" preserveAspectRatio="xMidYMid" fill-rule="evenodd" stroke-width="28.222" stroke-linejoin="round" xmlns="http://www.w3.org/2000/svg" xmlns:ooo="http://xml.openoffice.org/svg/export" xmlns:xlink="http://www.w3.org/1999/xlink" xmlns:presentation="http://sun.com/xmlns/staroffice/presentation" xmlns:smil="http://www.w3.org/2001/SMIL20/" xmlns:anim="urn:oasis:names:tc:opendocument:xmlns:animation:1.0" xmlns:svg="urn:oasis:names:tc:opendocument:xmlns:svg-compatible:1.0" xml:space="preserve">
 <defs class="ClipPathGroup">
  <clipPath id="presentation_clip_path" clipPathUnits="userSpaceOnUse">
   <rect x="0" y="0" width="25777" height="28222"/>
  </clipPath>
  <clipPath id="presentation_clip_path_shrink" clipPathUnits="userSpaceOnUse">
   <rect x="25" y="28" width="25726" height="28166"/>
  </clipPath>
 </defs>
 <defs class="TextShapeIndex">
  <g ooo:slide="id1" ooo:id-list="id3 id4 id5 id6"/>
 </defs>
 <defs class="EmbeddedBulletChars">
  <g id="bullet-char-template-57356" transform="scale(0.00048828125,-0.00048828125)">
   <path d="M 580,1141 L 1163,571 580,0 -4,571 580,1141 Z"/>
  </g>
  <g id="bullet-char-template-57354" transform="scale(0.00048828125,-0.00048828125)">
   <path d="M 8,1128 L 1137,1128 1137,0 8,0 8,1128 Z"/>
  </g>
  <g id="bullet-char-template-10146" transform="scale(0.00048828125,-0.00048828125)">
   <path d="M 174,0 L 602,739 174,1481 1456,739 174,0 Z M 1358,739 L 309,1346 659,739 1358,739 Z"/>
  </g>
  <g id="bullet-char-template-10132" transform="scale(0.00048828125,-0.00048828125)">
   <path d="M 2015,739 L 1276,0 717,0 1260,543 174,543 174,936 1260,936 717,1481 1274,1481 2015,739 Z"/>
  </g>
  <g id="bullet-char-template-10007" transform="scale(0.00048828125,-0.00048828125)">
   <path d="M 0,-2 C -7,14 -16,27 -25,37 L 356,567 C 262,823 215,952 215,954 215,979 228,992 255,992 264,992 276,990 289,987 310,991 331,999 354,1012 L 381,999 492,748 772,1049 836,1024 860,1049 C 881,1039 901,1025 922,1006 886,937 835,863 770,784 769,783 710,716 594,584 L 774,223 C 774,196 753,168 711,139 L 727,119 C 717,90 699,76 672,76 641,76 570,178 457,381 L 164,-76 C 142,-110 111,-127 72,-127 30,-127 9,-110 8,-76 1,-67 -2,-52 -2,-32 -2,-23 -1,-13 0,-2 Z"/>
  </g>
  <g id="bullet-char-template-10004" transform="scale(0.00048828125,-0.00048828125)">
   <path d="M 285,-33 C 182,-33 111,30 74,156 52,228 41,333 41,471 41,549 55,616 82,672 116,743 169,778 240,778 293,778 328,747 346,684 L 369,508 C 377,444 397,411 428,410 L 1163,1116 C 1174,1127 1196,1133 1229,1133 1271,1133 1292,1118 1292,1087 L 1292,965 C 1292,929 1282,901 1262,881 L 442,47 C 390,-6 338,-33 285,-33 Z"/>
  </g>
  <g id="bullet-char-template-9679" transform="scale(0.00048828125,-0.00048828125)">
   <path d="M 813,0 C 632,0 489,54 383,161 276,268 223,411 223,592 223,773 276,916 383,1023 489,1130 632,1184 813,1184 992,1184 1136,1130 1245,1023 1353,916 1407,772 1407,592 1407,412 1353,268 1245,161 1136,54 992,0 813,0 Z"/>
  </g>
  <g id="bullet-char-template-8226" transform="scale(0.00048828125,-0.00048828125)">
   <path d="M 346,457 C 273,457 209,483 155,535 101,586 74,649 74,723 74,796 101,859 155,911 209,963 273,989 346,989 419,989 480,963 531,910 582,859 608,796 608,723 608,648 583,586 532,535 482,483 420,457 346,457 Z"/>
  </g>
  <g id="bullet-char-template-8211" transform="scale(0.00048828125,-0.00048828125)">
   <path d="M -4,459 L 1135,459 1135,606 -4,606 -4,459 Z"/>
  </g>
  <g id="bullet-char-template-61548" transform="scale(0.00048828125,-0.00048828125)">
   <path d="M 173,740 C 173,903 231,1043 346,1159 462,1274 601,1332 765,1332 928,1332 1067,1274 1183,1159 1299,1043 1357,903 1357,740 1357,577 1299,437 1183,322 1067,206 928,148 765,148 601,148 462,206 346,322 231,437 173,577 173,740 Z"/>
  </g>
 </defs>
 <g>
  <g id="id2" class="Master_Slide">
   <g id="bg-id2" class="Background"/>
   <g id="bo-id2" class="BackgroundObjects"/>
  </g>
 </g>
 <g class="SlideGroup">
  <g>
   <g id="container-id1">
    <g id="id1" class="Slide" clip-path="url(#presentation_clip_path)">
     <g class="Page">
      <g class="Graphic">
       <g id="id3">
        <rect class="BoundingBox" stroke="none" fill="none" x="0" y="0" width="25777" height="28222"/>
        <defs>
         <clipPath id="clip_path_1" clipPathUnits="userSpaceOnUse">
          <path d="M 0,0 L 25776,0 25776,28221 0,28221 0,0 Z"/>
         </clipPath>
        </defs>
        <g clip-path="url(#clip_path_1)">
         <path fill="rgb(179,179,179)" stroke="none" d="M 9463,20037 C 9463,20037 8818,15221 10658,11459 12509,7718 11415,2289 10485,1246 9810,480 9554,326 7336,306 5118,285 2971,1328 1969,2749 967,4181 191,7789 436,10897 692,14025 784,13575 896,14362 1009,15139 1274,17235 1244,20159 1213,23072 1346,25618 1346,25618 1346,25618 1325,28368 5640,28215 9953,28051 9565,25710 9565,25710 L 9463,20038 9463,20037 Z"/>
         <path fill="rgb(204,204,204)" stroke="none" d="M 9073,19730 C 9073,19730 8430,14915 10269,11163 12120,7411 11026,1982 10095,941 9421,174 9165,21 6948,0 4729,-20 2572,1023 1580,2443 578,3875 -209,7483 47,10602 303,13720 394,13270 507,14057 620,14834 885,16929 854,19853 823,22767 956,25312 956,25312 956,25312 926,28062 5250,27909 9564,27746 9175,25404 9175,25404 L 9073,19729 9073,19730 Z"/>
         <path fill="rgb(51,51,51)" stroke="none" d="M 9943,11510 C 9871,10866 9718,14454 9421,15364 9237,15927 8553,16755 8553,16765 L 7296,18227 C 7296,18227 6304,19393 6642,19975 6969,20548 7286,20466 7685,20303 8012,20170 8104,19955 9044,18789 10046,17563 10302,14823 10302,14823 L 9943,11511 9943,11510 Z"/>
         <path fill="rgb(51,51,51)" stroke="none" d="M 1152,12543 C 1152,12543 1162,15507 1775,16305 2389,17102 2859,18349 2889,18666 2920,18993 2971,19627 2378,19607 1785,19586 1387,18268 1274,17920 1274,17920 784,15814 845,15456 703,14873 1152,12542 1152,12542 L 1152,12543 Z"/>
         <path fill="rgb(128,128,128)" stroke="none" d="M 10177,15763 C 12631,5981 7611,4324 7611,4324 L 7366,6348 C 7366,6348 10401,10131 10176,15763 L 10177,15763 Z"/>
         <path fill="rgb(128,128,128)" stroke="none" d="M 824,15282 C 824,15282 344,10478 2184,8526 5292,4702 7633,4324 7633,4324 L 7397,6337 C 7397,6337 753,10069 824,15282 L 824,15282 Z"/>
         <path fill="rgb(179,179,179)" stroke="none" d="M 16312,20037 C 16312,20037 16956,15221 15117,11459 13266,7718 14360,2289 15290,1246 15965,480 16220,326 18439,306 20657,285 22803,1328 23806,2749 24808,4181 25584,7789 25339,10897 25083,14025 24991,13575 24879,14362 24766,15139 24500,17235 24531,20159 24562,23072 24429,25618 24429,25618 24429,25618 24449,28368 20135,28215 15822,28051 16210,25710 16210,25710 L 16311,20038 16312,20037 Z"/>
         <path fill="rgb(204,204,204)" stroke="none" d="M 16701,19730 C 16701,19730 17345,14915 15505,11163 13655,7411 14749,1982 15679,941 16354,174 16610,21 18827,0 21046,-20 23203,1023 24194,2443 25196,3875 25984,7483 25727,10602 25472,13720 25381,13270 25268,14057 25155,14834 24890,16929 24921,19853 24952,22767 24818,25312 24818,25312 24818,25312 24849,28062 20525,27909 16211,27746 16600,25404 16600,25404 L 16702,19729 16701,19730 Z"/>
         <path fill="rgb(51,51,51)" stroke="none" d="M 15832,11510 C 15904,10866 16057,14454 16353,15364 16538,15927 17222,16755 17222,16765 L 18479,18227 C 18479,18227 19470,19393 19133,19975 18806,20548 18488,20466 18090,20303 17763,20170 17671,19955 16731,18789 15729,17563 15473,14823 15473,14823 L 15832,11511 15832,11510 Z"/>
         <path fill="rgb(51,51,51)" stroke="none" d="M 24623,12543 C 24623,12543 24613,15507 23999,16305 23386,17102 22916,18349 22885,18666 22855,18993 22803,19627 23397,19607 23989,19586 24388,18268 24500,17920 24500,17920 24991,15814 24930,15456 25072,14873 24623,12542 24623,12542 L 24623,12543 Z"/>
         <path fill="rgb(128,128,128)" stroke="none" d="M 15598,15763 C 13144,5981 18164,4324 18164,4324 L 18409,6348 C 18409,6348 15373,10131 15598,15763 L 15598,15763 Z"/>
         <path fill="rgb(128,128,128)" stroke="none" d="M 24950,15282 C 24950,15282 25430,10478 23590,8526 20483,4702 18142,4324 18142,4324 L 18377,6337 C 18377,6337 25022,10069 24951,15282 L 24950,15282 Z"/>
        </g>
       </g>
      </g>
      <g class="Graphic">
       <g id="id4">
        <rect class="BoundingBox" stroke="none" fill="none" x="678" y="9079" width="10610" height="10610"/>
        <path fill="rgb(0,0,0)" stroke="none" d="M 8379,15369 C 8379,15885 8294,16261 8125,16496 7958,16731 7749,16849 7497,16849 7291,16849 7093,16772 6904,16619 6714,16462 6544,16045 6394,15369 L 5973,13467 4512,16780 3585,16780 5683,12261 C 5572,11676 5438,11243 5281,10962 5125,10681 4930,10540 4698,10540 4512,10540 4348,10612 4208,10756 4071,10896 3994,11115 3977,11413 L 3801,11413 C 3810,10932 3907,10548 4090,10261 4273,9970 4502,9825 4777,9825 4953,9825 5120,9898 5277,10045 5437,10189 5574,10437 5688,10790 5806,11140 5987,11867 6232,12972 L 6580,14526 C 6721,15169 6868,15601 7022,15820 7178,16035 7365,16143 7580,16143 7946,16143 8154,15885 8203,15369 L 8379,15369 Z"/>
       </g>
      </g>
      <g class="Group">
       <g class="com.sun.star.drawing.LineShape">
        <g id="id5">
         <rect class="BoundingBox" stroke="none" fill="none" x="18559" y="10304" width="637" height="5717"/>
         <path fill="none" stroke="rgb(0,0,0)" stroke-width="635" stroke-linejoin="round" d="M 18877,10622 L 18877,15702"/>
        </g>
       </g>
       <g class="com.sun.star.drawing.LineShape">
        <g id="id6">
         <rect class="BoundingBox" stroke="none" fill="none" x="18559" y="12844" width="3952" height="637"/>
         <path fill="none" stroke="rgb(0,0,0)" stroke-width="635" stroke-linejoin="round" d="M 22192,13162 L 18877,13162"/>
        </g>
       </g>
      </g>
     </g>
    </g>
   </g>
  </g>
 </g>
</svg>